<?xml version="1.0" encoding="utf-8"?>
<!-- Generator: Adobe Illustrator 26.5.0, SVG Export Plug-In . SVG Version: 6.00 Build 0)  -->
<svg version="1.1" id="Layer_1" xmlns="http://www.w3.org/2000/svg" xmlns:xlink="http://www.w3.org/1999/xlink" x="0px" y="0px"
	 viewBox="0 0 268.5 233.9" style="enable-background:new 0 0 268.5 233.9;" xml:space="preserve">
<style type="text/css">
	.st0{fill:#343434;}
</style>
<g>
	<path class="st0" d="M19,33.6h234.9c6,0,11.5-3.2,14.5-8.4c3-5.2,3-11.6,0-16.8c-3-5.2-8.5-8.4-14.5-8.4H19C13,0,7.4,3.2,4.4,8.4
		c-3,5.2-3,11.6,0,16.8C7.4,30.4,13,33.6,19,33.6L19,33.6z"/>
	<path class="st0" d="M253.8,100.4h-103c-6,0-11.5,3.2-14.5,8.4c-3,5.2-3,11.6,0,16.8c3,5.2,8.5,8.4,14.5,8.4h103
		c6,0,11.5-3.2,14.5-8.4c3-5.2,3-11.6,0-16.8C265.4,103.6,259.8,100.4,253.8,100.4z"/>
	<path class="st0" d="M253.8,200.4H19c-4.8-0.6-9.6,0.8-13.3,4c-3.6,3.2-5.7,7.8-5.7,12.6c0,4.8,2.1,9.4,5.7,12.6
		c3.6,3.2,8.5,4.7,13.3,4h234.9c5.4-0.7,10.2-4,12.7-8.9c2.5-4.9,2.5-10.7,0-15.5C264,204.4,259.3,201.1,253.8,200.4L253.8,200.4z"
		/>
</g>
</svg>
